HIERARCHY
ROOT CG
{
	OFFSET 0.000000 -0.000000 27.772259
	CHANNELS 6 Xposition Yposition Zposition Xrotation Yrotation Zrotation
	JOINT Pelvis
	{
		OFFSET 0.000000 0.000000 0.000000
		CHANNELS 3 Xrotation Yrotation Zrotation
		JOINT Spine
		{
			OFFSET -0.000017 -10.490843 -0.495483
			CHANNELS 3 Xrotation Yrotation Zrotation
			JOINT Spine1
			{
				OFFSET -0.000010 -22.678980 0.018061
				CHANNELS 3 Xrotation Yrotation Zrotation
				JOINT Spine2
				{
					OFFSET -0.000010 -22.678967 0.018061
					CHANNELS 3 Xrotation Yrotation Zrotation
					JOINT Spine3
					{
						OFFSET -0.000010 -22.678982 0.018059
						CHANNELS 3 Xrotation Yrotation Zrotation
						JOINT Neck
						{
							OFFSET -0.000012 -22.678986 -1.289251
							CHANNELS 3 Xrotation Yrotation Zrotation
							JOINT Neck1
							{
								OFFSET -0.000007 -16.255905 0.012947
								CHANNELS 3 Xrotation Yrotation Zrotation
								JOINT Head
								{
									OFFSET -0.000005 -10.784607 -0.287502
									CHANNELS 3 Xrotation Yrotation Zrotation
									JOINT Jaw01
									{
										OFFSET 0.000031 7.782959 5.073944
										CHANNELS 3 Xrotation Yrotation Zrotation
										JOINT Jaw02
										{
											OFFSET 0.000004 -34.927139 -18.883980
											CHANNELS 3 Xrotation Yrotation Zrotation
											End Site
											{
												OFFSET -0.000170 8.372803 -38.812450
											}
										}
									}
									JOINT Nose
									{
										OFFSET -0.000002 -25.700912 7.222265
										CHANNELS 3 Xrotation Yrotation Zrotation
										End Site
										{
											OFFSET -0.000090 0.641281 -21.715439
										}
									}
									JOINT L_EyeSocket
									{
										OFFSET 7.352326 -19.832718 14.164183
										CHANNELS 3 Xrotation Yrotation Zrotation
										JOINT L_Eye
										{
											OFFSET -0.000868 -0.001053 0.016003
											CHANNELS 3 Xrotation Yrotation Zrotation
											End Site
											{
												OFFSET -0.001505 -0.001846 0.027969
											}
										}
										JOINT L_Eyelid_Top
										{
											OFFSET -0.001004 -0.002625 0.032516
											CHANNELS 3 Xrotation Yrotation Zrotation
											End Site
											{
												OFFSET -0.013218 0.005753 0.024086
											}
										}
										JOINT L_Eyelid_Bottom
										{
											OFFSET -0.001194 -0.002777 0.035381
											CHANNELS 3 Xrotation Yrotation Zrotation
											End Site
											{
												OFFSET -0.010032 0.008636 -0.024754
											}
										}
									}
									JOINT R_EyeSocket
									{
										OFFSET -7.352252 -19.832748 14.164206
										CHANNELS 3 Xrotation Yrotation Zrotation
										JOINT R_Eye
										{
											OFFSET 0.000875 -0.001068 0.015991
											CHANNELS 3 Xrotation Yrotation Zrotation
											End Site
											{
												OFFSET 0.001505 -0.001846 0.027962
											}
										}
										JOINT R_Eyelid_Top
										{
											OFFSET 0.001021 -0.002625 0.032516
											CHANNELS 3 Xrotation Yrotation Zrotation
											End Site
											{
												OFFSET 0.013214 0.005753 0.024078
											}
										}
										JOINT R_Eyelid_Bottom
										{
											OFFSET 0.001170 -0.002762 0.035366
											CHANNELS 3 Xrotation Yrotation Zrotation
											End Site
											{
												OFFSET 0.010029 0.008636 -0.024746
											}
										}
									}
								}
								JOINT Neck_Fat
								{
									OFFSET 0.000044 -9.595100 -17.491512
									CHANNELS 3 Xrotation Yrotation Zrotation
									End Site
									{
										OFFSET -0.000036 15.369423 -0.000007
									}
								}
							}
						}
						JOINT L_Clavicle
						{
							OFFSET 4.567107 -11.666092 -3.750029
							CHANNELS 3 Xrotation Yrotation Zrotation
							JOINT L_UpperArm
							{
								OFFSET 20.725666 -0.000053 -0.000032
								CHANNELS 3 Xrotation Yrotation Zrotation
								JOINT L_Forearm
								{
									OFFSET 5.265112 -0.585754 -20.155697
									CHANNELS 3 Xrotation Yrotation Zrotation
									JOINT L_Hand
									{
										OFFSET 2.653017 -10.877708 -16.383667
										CHANNELS 3 Xrotation Yrotation Zrotation
										JOINT L_Finger0
										{
											OFFSET -4.206146 -4.328911 -5.034346
											CHANNELS 3 Xrotation Yrotation Zrotation
											JOINT L_Finger01
											{
												OFFSET 0.084272 -1.788536 -4.181065
												CHANNELS 3 Xrotation Yrotation Zrotation
												End Site
												{
													OFFSET 3.261885 3.094673 -0.685818
												}
											}
										}
										JOINT L_Finger1
										{
											OFFSET -1.039112 -6.775742 -3.499998
											CHANNELS 3 Xrotation Yrotation Zrotation
											JOINT L_Finger11
											{
												OFFSET 1.320335 -3.040672 -6.425793
												CHANNELS 3 Xrotation Yrotation Zrotation
												End Site
												{
													OFFSET -1.244579 6.832077 -2.013330
												}
											}
										}
										JOINT L_Finger2
										{
											OFFSET 2.531296 -5.656487 -3.286415
											CHANNELS 3 Xrotation Yrotation Zrotation
											JOINT L_Finger21
											{
												OFFSET 1.991665 -2.402016 -5.957748
												CHANNELS 3 Xrotation Yrotation Zrotation
												End Site
												{
													OFFSET -2.793068 5.800873 -1.944178
												}
											}
										}
										JOINT L_Finger3
										{
											OFFSET 5.474075 -3.302338 -2.655975
											CHANNELS 3 Xrotation Yrotation Zrotation
											JOINT L_Finger31
											{
												OFFSET 2.026943 -1.267532 -5.961166
												CHANNELS 3 Xrotation Yrotation Zrotation
												End Site
												{
													OFFSET -4.375172 4.343658 -1.800320
												}
											}
										}
										JOINT L_Finger4
										{
											OFFSET 4.825745 1.085899 -2.321970
											CHANNELS 3 Xrotation Yrotation Zrotation
											JOINT L_Finger41
											{
												OFFSET 3.358261 -1.829651 -3.744434
												CHANNELS 3 Xrotation Yrotation Zrotation
												End Site
												{
													OFFSET -3.843296 2.955200 -2.267633
												}
											}
										}
									}
								}
							}
						}
						JOINT R_Clavicle
						{
							OFFSET -4.567111 -11.666092 -3.750036
							CHANNELS 3 Xrotation Yrotation Zrotation
							JOINT R_UpperArm
							{
								OFFSET -20.725670 -0.000031 0.000038
								CHANNELS 3 Xrotation Yrotation Zrotation
								JOINT R_Forearm
								{
									OFFSET -5.265285 -0.585762 -20.155655
									CHANNELS 3 Xrotation Yrotation Zrotation
									JOINT R_Hand
									{
										OFFSET -2.653147 -10.877739 -16.383663
										CHANNELS 3 Xrotation Yrotation Zrotation
										JOINT R_Finger0
										{
											OFFSET 4.206116 -4.328888 -5.034388
											CHANNELS 3 Xrotation Yrotation Zrotation
											JOINT R_Finger01
											{
												OFFSET -0.084324 -1.788544 -4.181051
												CHANNELS 3 Xrotation Yrotation Zrotation
												End Site
												{
													OFFSET -3.261890 3.094666 -0.685791
												}
											}
										}
										JOINT R_Finger1
										{
											OFFSET 1.039101 -6.775711 -3.499994
											CHANNELS 3 Xrotation Yrotation Zrotation
											JOINT R_Finger11
											{
												OFFSET -1.320374 -3.040672 -6.425779
												CHANNELS 3 Xrotation Yrotation Zrotation
												End Site
												{
													OFFSET 1.244556 6.832077 -2.013342
												}
											}
										}
										JOINT R_Finger2
										{
											OFFSET -2.531307 -5.656464 -3.286409
											CHANNELS 3 Xrotation Yrotation Zrotation
											JOINT R_Finger21
											{
												OFFSET -1.991707 -2.402016 -5.957708
												CHANNELS 3 Xrotation Yrotation Zrotation
												End Site
												{
													OFFSET 2.793037 5.800858 -1.944197
												}
											}
										}
										JOINT R_Finger3
										{
											OFFSET -5.474091 -3.302330 -2.655947
											CHANNELS 3 Xrotation Yrotation Zrotation
											JOINT R_Finger31
											{
												OFFSET -2.026993 -1.267532 -5.961157
												CHANNELS 3 Xrotation Yrotation Zrotation
												End Site
												{
													OFFSET 4.375156 4.343674 -1.800358
												}
											}
										}
										JOINT R_Finger4
										{
											OFFSET -4.825756 1.085922 -2.321926
											CHANNELS 3 Xrotation Yrotation Zrotation
											JOINT R_Finger41
											{
												OFFSET -3.358307 -1.829651 -3.744390
												CHANNELS 3 Xrotation Yrotation Zrotation
												End Site
												{
													OFFSET 3.843273 2.955208 -2.267666
												}
											}
										}
									}
								}
							}
						}
					}
				}
			}
		}
		JOINT Tail01
		{
			OFFSET -0.000010 10.922326 -0.017508
			CHANNELS 3 Xrotation Yrotation Zrotation
			JOINT Tail02
			{
				OFFSET -0.000022 21.986111 0.000013
				CHANNELS 3 Xrotation Yrotation Zrotation
				JOINT Tail03
				{
					OFFSET -0.000022 21.986118 0.000002
					CHANNELS 3 Xrotation Yrotation Zrotation
					JOINT Tail04
					{
						OFFSET -0.000022 21.986122 0.000004
						CHANNELS 3 Xrotation Yrotation Zrotation
						JOINT Tail05
						{
							OFFSET -0.000022 21.986099 0.000010
							CHANNELS 3 Xrotation Yrotation Zrotation
							JOINT Tail06
							{
								OFFSET -0.000022 21.986099 0.000006
								CHANNELS 3 Xrotation Yrotation Zrotation
								JOINT Tail07
								{
									OFFSET -0.000022 21.986099 0.000000
									CHANNELS 3 Xrotation Yrotation Zrotation
									JOINT Tail08
									{
										OFFSET -0.000022 21.984848 0.000050
										CHANNELS 3 Xrotation Yrotation Zrotation
										JOINT Tail09
										{
											OFFSET -0.000025 21.926025 -1.606211
											CHANNELS 3 Xrotation Yrotation Zrotation
											JOINT Tail10
											{
												OFFSET -0.000027 21.750092 -3.203882
												CHANNELS 3 Xrotation Yrotation Zrotation
												End Site
												{
													OFFSET -0.000036 4.767395 21.461668
												}
											}
										}
									}
								}
							}
						}
					}
				}
			}
		}
		JOINT L_Thigh
		{
			OFFSET 24.788780 0.000021 -0.000034
			CHANNELS 3 Xrotation Yrotation Zrotation
			JOINT L_Calf
			{
				OFFSET 4.720837 4.161326 -21.049969
				CHANNELS 3 Xrotation Yrotation Zrotation
				JOINT L_Foot
				{
					OFFSET 2.154160 21.114433 -11.949743
					CHANNELS 3 Xrotation Yrotation Zrotation
					JOINT L_Toe0
					{
						OFFSET 4.557564 9.251841 -8.735286
						CHANNELS 3 Xrotation Yrotation Zrotation
						End Site
						{
							OFFSET 4.555542 -12.646044 1.018752
						}
					}
					JOINT L_Toe1
					{
						OFFSET 2.346291 5.845602 -11.687160
						CHANNELS 3 Xrotation Yrotation Zrotation
						End Site
						{
							OFFSET 5.347954 -12.298279 1.365644
						}
					}
					JOINT L_Toe2
					{
						OFFSET -0.356020 3.902458 -12.541145
						CHANNELS 3 Xrotation Yrotation Zrotation
						End Site
						{
							OFFSET 3.916235 -12.806129 1.542549
						}
					}
					JOINT L_Toe3
					{
						OFFSET -4.603447 3.183935 -12.435249
						CHANNELS 3 Xrotation Yrotation Zrotation
						End Site
						{
							OFFSET 3.810858 -12.587427 2.957583
						}
					}
					JOINT L_Toe4
					{
						OFFSET -7.144358 6.231495 -10.072764
						CHANNELS 3 Xrotation Yrotation Zrotation
						End Site
						{
							OFFSET 3.810858 -12.587425 2.957585
						}
					}
				}
			}
		}
		JOINT R_Thigh
		{
			OFFSET -24.788780 -0.000024 0.000034
			CHANNELS 3 Xrotation Yrotation Zrotation
			JOINT R_Calf
			{
				OFFSET -4.720922 4.161324 -21.049952
				CHANNELS 3 Xrotation Yrotation Zrotation
				JOINT R_Foot
				{
					OFFSET -2.154238 21.114414 -11.949730
					CHANNELS 3 Xrotation Yrotation Zrotation
					JOINT R_Toe0
					{
						OFFSET -4.557598 9.251823 -8.735270
						CHANNELS 3 Xrotation Yrotation Zrotation
						End Site
						{
							OFFSET -4.555508 -12.646051 1.018756
						}
					}
					JOINT R_Toe1
					{
						OFFSET -2.346325 5.845589 -11.687157
						CHANNELS 3 Xrotation Yrotation Zrotation
						End Site
						{
							OFFSET -5.347919 -12.298286 1.365654
						}
					}
					JOINT R_Toe2
					{
						OFFSET 0.355980 3.902462 -12.541145
						CHANNELS 3 Xrotation Yrotation Zrotation
						End Site
						{
							OFFSET -3.916199 -12.806131 1.542559
						}
					}
					JOINT R_Toe3
					{
						OFFSET 4.603411 3.183941 -12.435266
						CHANNELS 3 Xrotation Yrotation Zrotation
						End Site
						{
							OFFSET -3.810825 -12.587429 2.957591
						}
					}
					JOINT R_Toe4
					{
						OFFSET 7.144323 6.231503 -10.072779
						CHANNELS 3 Xrotation Yrotation Zrotation
						End Site
						{
							OFFSET -3.810825 -12.587433 2.957584
						}
					}
				}
			}
		}
	}
}
MOTION
Frames: 4
Frame Time: 0.033333
0.000000 -0.000000 47.991329 0.000000 0.000000 -0.000082 -13.074634 3.625028 -19.575109 13.876180 2.403547 13.204982 0.721602 -0.483157 11.778171 -0.345843 -0.343245 11.805061 -5.579372 -1.380671 11.756155 4.139907 -0.084169 16.705924 -0.093667 -0.006289 16.695848 3.809940 0.149817 22.851243 -9.112528 -0.344118 0.410355 0.000009 0.000001 -0.000000 0.000021 0.000000 -0.000007 -0.000004 0.000006 -0.000013 0.000101 -0.000062 0.000004 0.000001 -0.000001 -0.000001 0.000009 0.000007 0.000003 0.000001 0.000000 -0.000002 0.000099 0.000062 -0.000002 0.000002 -0.000003 0.000002 0.000007 -0.000013 -0.000000 -0.119194 0.000000 0.000000 0.000199 -10.949505 9.434708 28.174477 -11.939893 -25.001277 -41.485148 9.886166 -7.950597 -17.809810 6.264934 12.003335 51.091598 19.251950 -20.569984 67.430783 -29.127939 45.024180 58.040994 8.560835 -9.181116 56.581881 12.824577 -0.450669 56.242165 20.607924 -10.518484 34.674200 18.032997 -1.285990 35.495971 21.839767 -10.803910 38.978558 35.606063 -8.637674 28.513548 29.788784 -4.914599 48.046501 51.416346 -16.268659 0.000089 -10.463533 10.056679 36.871315 12.390033 18.531318 -19.630363 -3.925097 4.629264 -51.178932 -20.249677 41.572793 3.689517 -41.715237 -35.522728 0.495633 0.543886 -0.064975 31.804957 -12.582466 8.266043 -20.412036 3.789865 2.990596 30.681739 -6.544621 6.485598 -31.528765 14.088708 7.845070 20.352029 9.169167 11.035008 -18.625190 18.003614 5.054312 15.912565 27.329971 4.519810 0.553290 -0.923901 -0.210394 -1.634555 -0.063374 -0.346877 -1.587012 2.244529 -13.833799 -1.734206 2.331115 -11.908348 0.235808 1.907747 -11.485754 5.076854 1.412876 -13.238291 6.898419 0.524798 -11.486159 7.453779 0.613760 -5.150613 4.946105 1.444057 4.850573 0.765646 3.425501 19.193112 4.280836 3.227726 20.773320 -34.308173 -13.310760 40.467211 14.691752 0.839299 3.291385 -50.998208 -12.749083 -37.840638 6.063608 -26.117165 5.604002 10.996592 -7.513660 3.931393 16.303088 9.965147 1.750036 18.235295 15.310953 -15.214511 -6.000175 24.357052 -11.013539 -47.286868 -18.031124 -16.043460 43.430096 -4.743763 -8.663671 -28.670324 -25.180746 37.312292 8.242697 -33.137742 -16.782434 13.266510 -20.272983 -10.007547 22.013094 -9.363505 -2.967688 18.494520 -8.423303 -3.114713 5.881650 -10.380163 6.477025 
0.000000 -0.000000 48.575634 0.000000 0.000000 -0.000082 -13.097608 3.252426 -18.271128 14.128396 3.066932 13.227738 0.682987 -0.775519 11.249970 -0.210480 -0.619043 11.291969 -5.432337 -1.672387 11.238217 3.363317 -0.049461 17.279649 -0.503764 0.006303 17.271925 4.428462 0.923401 21.849627 -9.293803 -0.336038 0.388486 0.000009 0.000000 -0.000001 0.000020 0.000000 -0.000007 -0.000005 0.000007 -0.000015 0.000102 -0.000061 -0.000001 -0.000001 -0.000001 -0.000003 0.000009 0.000007 0.000000 0.000000 -0.000000 -0.000000 0.000100 0.000062 0.000001 0.000002 -0.000001 0.000002 0.000006 -0.000014 -0.000001 -0.106503 0.000000 -0.000002 0.000670 -11.945011 6.393791 33.628112 -10.825716 -19.747417 -43.112646 10.373454 -8.104071 -18.251058 4.016830 13.378048 50.038482 21.502518 -15.690618 69.233249 -29.071508 46.395214 58.737161 10.100613 -8.692943 57.124407 12.932812 -0.509960 56.164113 21.034240 -10.900033 36.215473 18.752161 -1.594211 35.217975 21.744997 -11.850124 39.055261 35.654561 -8.676075 26.718786 28.339978 -5.591120 52.721656 53.594251 -19.591990 0.000367 -9.573256 6.696866 36.795639 16.303621 18.729682 -20.358861 -4.100786 4.774605 -53.504092 -21.685192 39.858054 4.233114 -42.723257 -34.668008 0.419635 0.450477 -0.076284 32.023694 -12.952384 8.973993 -20.586383 3.837845 2.978790 30.869685 -6.623638 6.484185 -31.711370 14.157622 7.916041 20.694228 9.622689 10.227358 -18.640030 18.016094 5.060399 16.704648 28.072690 3.303240 0.573800 -0.945658 -0.208852 -1.620299 -0.063532 -0.374253 -1.555717 2.255248 -14.017127 -1.728252 2.346431 -12.285335 -0.460970 1.952769 -11.799018 4.356957 1.545308 -13.889146 6.716926 0.610516 -12.829676 8.429167 0.590651 -7.354153 6.416471 0.975219 2.443866 2.319361 3.169983 17.845626 5.398872 3.686165 21.265145 -35.232961 -13.145042 37.641084 12.940884 0.695125 2.911262 -47.003419 -12.134026 -36.133234 6.063608 -26.117165 5.604002 10.996591 -7.513650 3.931392 16.303419 9.965244 1.750017 18.235294 15.310958 -15.214509 -6.000182 24.357054 -11.013540 -51.681593 -15.564203 -13.681829 44.577838 -4.952729 -8.833744 -28.305516 -20.333521 38.879021 6.846434 -31.106898 -16.698006 10.860667 -18.428597 -10.189729 18.441999 -8.039772 -3.146455 14.306854 -7.380368 -4.731152 2.455369 -9.828473 4.457167 
0.000000 -0.000000 49.137245 0.000000 0.000000 -0.000082 -13.113401 2.722345 -16.828010 14.331957 3.805999 13.070440 0.635615 -1.061386 10.831385 0.110746 -0.900983 10.890687 -5.090551 -1.972291 10.831426 2.303806 -0.026945 17.919377 -1.108900 0.002200 17.914422 5.226918 1.921958 20.411744 -9.543661 -0.331540 0.376599 0.000008 0.000000 0.000000 0.000021 0.000000 -0.000007 -0.000005 0.000007 -0.000015 0.000101 -0.000062 0.000002 -0.000002 -0.000003 0.000000 0.000007 0.000011 -0.000003 0.000001 0.000000 -0.000005 0.000099 0.000062 0.000001 0.000001 -0.000002 -0.000000 0.000009 -0.000013 -0.000000 -0.092747 0.000000 0.000002 0.001186 -12.876974 0.375420 40.987958 -6.159863 -12.202941 -44.420808 10.767845 -8.217280 -20.501803 3.107441 13.228559 43.790474 27.321846 -3.859625 66.453581 -29.133444 44.288876 56.897764 12.385039 -7.885175 52.763843 12.047651 -0.009666 53.199814 20.580637 -10.712815 33.815140 17.629683 -1.121555 32.689279 19.300463 -12.778066 34.449886 32.569306 -6.481798 22.469736 22.505134 -6.116713 53.642964 53.981259 -20.263117 0.000563 -8.706903 3.425675 36.682514 20.535742 18.215799 -21.348982 -4.342603 4.968672 -55.961345 -23.140932 37.801470 4.631921 -43.658815 -33.859915 0.330898 0.346739 -0.078280 32.031757 -13.271256 9.629451 -20.755697 3.883518 2.969057 30.884674 -6.627401 6.478548 -31.907140 14.230762 7.991542 20.913505 10.115683 9.471782 -18.660529 18.033325 5.068814 17.445391 28.724818 2.186505 0.582608 -0.937029 -0.192275 -1.627493 -0.065816 -0.404968 -1.534404 2.260245 -14.129270 -1.613692 2.360597 -12.863428 -0.979655 2.012318 -12.147620 3.697186 1.745840 -14.218136 6.296282 0.775719 -13.693600 9.021727 0.592160 -9.304496 7.549198 0.249382 -0.295396 4.081819 2.621824 15.602297 6.874450 3.905445 20.706572 -36.195580 -12.649812 34.875270 10.734425 0.530179 2.426538 -42.509233 -11.430573 -34.336252 6.063611 -26.117177 5.604004 10.996597 -7.513654 3.931394 16.303561 9.965290 1.750010 18.235292 15.310960 -15.214513 -6.000183 24.357059 -11.013541 -56.454553 -13.131701 -10.794574 45.947891 -5.206613 -9.031325 -26.684501 -16.716569 41.690795 3.570309 -26.212710 -16.273115 5.164100 -13.958486 -10.293280 9.877918 -4.796861 -3.246045 4.366149 -4.405875 -8.272781 -5.693523 -8.019424 -0.238782 
0.000000 -0.000000 49.650887 0.000000 0.000000 -0.000082 -13.113360 2.065338 -15.285355 14.482586 4.598156 12.747004 0.581315 -1.339158 10.501760 0.551445 -1.183173 10.579039 -4.623700 -2.274000 10.513860 1.136636 -0.016517 18.589514 -1.835851 -0.013951 18.587385 6.141822 3.015688 18.722795 -9.828425 -0.328911 0.368741 0.000011 0.000000 -0.000001 0.000020 0.000000 -0.000008 -0.000006 0.000007 -0.000017 0.000101 -0.000062 -0.000001 0.000003 -0.000003 -0.000003 0.000006 0.000007 0.000000 0.000001 0.000000 -0.000003 0.000099 0.000062 -0.000004 0.000003 -0.000001 -0.000000 0.000007 -0.000013 -0.000003 -0.078520 0.000000 -0.000002 0.000966 -13.148515 -5.927726 47.481686 0.449945 -5.275370 -45.013146 10.947146 -8.265544 -24.044238 2.649198 12.417078 33.706041 32.367618 11.225214 61.101786 -29.010351 40.230422 53.631663 14.535430 -6.739685 46.045403 10.607997 0.617893 48.955026 19.543256 -10.248170 29.278699 15.429259 -0.361486 29.299596 15.932127 -13.800799 28.180263 27.793891 -3.899910 17.746655 15.240672 -7.202254 51.479098 53.051073 -18.694842 0.000456 -7.888150 0.278346 36.343157 24.739683 17.307848 -21.990001 -4.500999 5.092146 -58.671680 -24.576279 35.458804 4.838264 -44.501596 -33.128002 0.234485 0.238137 -0.072025 31.782875 -13.527804 10.214436 -20.924057 3.925283 2.963593 30.688361 -6.541368 6.461896 -32.118394 14.305347 8.073151 20.980546 10.654188 8.786187 -18.687729 18.056175 5.079980 18.101121 29.267234 1.207318 0.577035 -0.891722 -0.157579 -1.634709 -0.070418 -0.436497 -1.506796 2.260629 -14.360256 -1.513514 2.371342 -13.490267 -1.305485 2.069735 -12.602543 3.188358 1.906432 -14.605164 5.638239 0.974243 -14.405318 8.993675 0.648540 -10.860516 8.054550 -0.415311 -2.667794 5.733929 2.014812 13.154622 9.018302 3.924698 19.463053 -37.100122 -11.848697 32.247475 8.088017 0.357246 1.837711 -37.733988 -10.614292 -32.515061 6.063610 -26.117175 5.604004 10.996590 -7.513660 3.931394 16.303539 9.965285 1.750005 18.235294 15.310962 -15.214513 -6.000184 24.357069 -11.013547 -60.899449 -10.908604 -7.323174 46.864100 -5.379029 -9.160098 -24.304637 -13.959392 45.085102 0.373852 -21.353379 -15.565900 -0.427012 -9.501675 -9.945522 1.350194 -1.576433 -2.861455 -5.347654 -0.874560 -11.239513 -13.631329 -5.578866 -4.609843 
